<svg xmlns="http://www.w3.org/2000/svg" width="20" height="20" viewBox="0 0 20 20">
    <g id="prefix__Group_2039" data-name="Group 2039" transform="translate(-381 -252)">
        <path id="prefix__Path_1050" d="M0 0h20v20H0z" data-name="Path 1050" transform="translate(381 252)" style="fill:transparent"/>
        <path id="prefix__home-run" d="M15.568 6.959L9.041.431a1.473 1.473 0 0 0-2.083 0L.434 6.954l-.007.007a1.472 1.472 0 0 0 .98 2.51h.305v4.8A1.726 1.726 0 0 0 3.437 16h2.554a.469.469 0 0 0 .469-.469v-3.766a.787.787 0 0 1 .787-.787h1.505a.787.787 0 0 1 .786.787v3.766a.469.469 0 0 0 .469.469h2.553a1.726 1.726 0 0 0 1.724-1.724v-4.8h.241a1.473 1.473 0 0 0 1.042-2.514zm0 0" transform="translate(383 253.001)" style="fill:#2095f2"/>
    </g>
</svg>
